<svg viewBox="0 0 46.733 40" fill="none" xmlns="http://www.w3.org/2000/svg" aria-hidden="true">
  <path d="M23.3663 2.94942C31.7509 2.94942 38.7176 9.03191 40.1171 17.0359H43.0915C41.6628 7.39746 33.3798 0 23.3663 0C13.3529 0 5.06987 7.39746 3.64113 17.0359H6.61561C8.0151 9.03191 14.9817 2.94942 23.3663 2.94942Z" fill="currentColor"/>
  <path d="M25.1507 10.7836H16.6661V17.0374H20.0809V13.733H24.6781C26.5163 13.733 27.6726 14.3658 27.6726 15.9184C27.6726 16.3537 27.5802 16.7256 27.4078 17.0358H30.7902C31.015 16.5126 31.1397 15.9215 31.1397 15.2594C31.1397 12.6001 29.1429 10.782 25.1492 10.782L25.1507 10.7836Z" fill="currentColor"/>
  <path d="M0 21.1059H3.44714C4.01987 31.6365 12.7185 40.0001 23.3663 40.0001C34.0141 40.0001 42.7128 31.6365 43.2855 21.1059H46.7327V18.5624H0V21.1059ZM20.0809 21.1059H24.7858C26.8073 21.1059 28.1714 21.9502 28.1714 23.6865C28.1714 25.4228 26.8058 26.267 24.7828 26.267H20.0809V21.1059ZM16.6645 21.1059V29.2164H25.2816C28.9073 29.2164 31.7448 27.3999 31.7448 24.1078C31.7448 22.9117 31.2998 21.8853 30.5593 21.1059H40.3357C39.766 30.0066 32.3883 37.0507 23.3663 37.0507C14.3443 37.0507 6.96664 30.0066 6.39699 21.1059H16.6645Z" fill="currentColor"/>
</svg>
