<svg width="171" height="60" viewBox="0 0 171 60" fill="none" xmlns="http://www.w3.org/2000/svg">
<g clip-path="url(#clip0_35_3929)">
<path d="M50.7487 38.2962V21.7038H58.4513C62.0744 21.7038 63.8872 23.3382 63.8872 25.7347C63.8872 27.7978 62.5509 29.1239 60.6675 29.6227C62.8131 30.0013 64.4343 31.5429 64.4343 33.7013C64.4343 36.6643 61.8601 38.3012 58.5698 38.3012H50.7487V38.2962ZM53.8474 28.4119H58.0201C59.6892 28.4119 60.7381 27.7251 60.7381 26.3263C60.7381 24.9275 59.6892 24.3585 58.0201 24.3585H53.8474V28.4119ZM53.8474 35.6415H58.1159C59.9514 35.6415 61.1919 34.882 61.1919 33.3177C61.1919 31.7535 59.9514 30.9939 58.1159 30.9939H53.8474V35.639V35.6415Z" fill="black"/>
<path d="M67.838 38.2962V21.7038H80.0941V24.3585H70.9392V28.4119H77.8073V30.9964H70.9392V35.644H80.0941V38.2987H67.838V38.2962Z" fill="black"/>
<path d="M83.46 38.2962V21.7038H89.5641C94.3319 21.7038 98.0533 24.8097 98.0533 29.906C98.0533 35.0023 94.3571 38.2987 89.5162 38.2987H83.46V38.2962ZM86.5587 35.6415H89.254C93.046 35.6415 94.8336 33.6988 94.8336 29.9511C94.8336 26.5845 93.0687 24.356 89.4204 24.356H86.5587V35.639V35.6415Z" fill="black"/>
<path d="M101.344 38.2962V21.7038H109.117C112.647 21.7038 114.671 23.5538 114.671 26.1358C114.671 28.9334 112.644 30.2845 110.546 30.6881C112.669 30.9488 113.811 31.9691 114.217 34.2427L114.981 38.2962H111.643L111.071 34.5034C110.761 32.5131 109.782 31.7535 107.637 31.7535H104.442V38.2962H101.344ZM104.442 29.1715H108.567C110.214 29.1715 111.451 28.4119 111.451 26.7525C111.451 25.093 110.211 24.3585 108.567 24.3585H104.442V29.1715Z" fill="black"/>
<path d="M117.147 30.0238C117.147 24.9977 120.629 21.3478 125.851 21.3478C131.072 21.3478 134.529 24.9977 134.529 30.0238C134.529 35.0499 131.12 38.6522 125.851 38.6522C120.581 38.6522 117.147 35.0976 117.147 30.0238ZM131.261 30.0238C131.261 26.5394 129.259 23.9799 125.848 23.9799C122.437 23.9799 120.412 26.5394 120.412 30.0238C120.412 33.5083 122.414 36.0226 125.848 36.0226C129.282 36.0226 131.261 33.4631 131.261 30.0238Z" fill="black"/>
<path d="M136.826 29.9286C136.826 25.0679 140.26 21.3478 145.29 21.3478C149.415 21.3478 152.037 23.6942 152.823 26.3739L149.939 27.4644C149.319 25.6871 147.985 23.9799 145.265 23.9799C142.093 23.9799 140.091 26.1834 140.091 29.906C140.091 33.6286 142.07 35.9975 145.265 35.9975C147.96 35.9975 149.342 34.4333 150.01 32.4404L152.846 33.5559C151.797 36.5415 149.316 38.6522 145.265 38.6522C140.043 38.6522 136.823 34.882 136.823 29.9286H136.826Z" fill="black"/>
<path d="M166.733 38.2962L161.035 30.5904L158.912 32.7713V38.2937H155.814V21.7038H158.912V28.981L165.541 21.7038H169.714L163.156 28.4119L170.667 38.2962H166.733Z" fill="black"/>
<path d="M21.2041 14.6547C28.8134 14.6547 35.1343 20.1295 36.405 27.3315H39.1053C37.8069 18.658 30.2884 12 21.2041 12C12.1199 12 4.60137 18.658 3.3029 27.3315H6.00321C7.27395 20.1295 13.5948 14.6547 21.2041 14.6547Z" fill="black"/>
<path d="M22.8228 21.7038H15.1227V27.3315H18.2214V24.3585H22.3942C24.0633 24.3585 25.1121 24.9275 25.1121 26.3263C25.1121 26.7174 25.0264 27.0533 24.8726 27.3315H27.941C28.1452 26.8602 28.2587 26.3288 28.2587 25.7322C28.2587 23.3382 26.4459 21.7038 22.8228 21.7038Z" fill="black"/>
<path d="M0 30.9964H3.12893C3.64832 40.4746 11.5425 48 21.2041 48C30.8657 48 38.7599 40.4746 39.2793 30.9964H42.4082V28.7077H0V30.9964ZM18.2214 30.9964H22.4925C24.3255 30.9964 25.566 31.756 25.566 33.3202C25.566 34.8845 24.3255 35.644 22.49 35.644H18.2239V30.999L18.2214 30.9964ZM15.1227 30.9964V38.2962H22.9413C26.2316 38.2962 28.8058 36.6618 28.8058 33.6988C28.8058 32.6208 28.4024 31.6983 27.7292 30.9964H36.6017C36.0848 39.0081 29.3908 45.3453 21.2041 45.3453C13.0175 45.3453 6.32342 39.0056 5.80655 30.9964H15.1253H15.1226Z" fill="black"/>
</g>
<defs>
<clipPath id="clip0_35_3929">
<rect width="170.667" height="36" fill="white" transform="translate(0 12)"/>
</clipPath>
</defs>
</svg>
